<svg width="1024" height="1024" viewBox="0 0 1024 1024" fill="none" xmlns="http://www.w3.org/2000/svg">
<g clip-path="url(#clip0_66_2)">
<path d="M0 0H810.296C928.321 0 1024 95.6787 1024 213.704V1024H213.704C95.6787 1024 0 928.321 0 810.296V0Z" fill="black"/>
<path d="M175.861 454.121V143.278H310.033C333.104 143.278 353.29 147.832 370.593 156.938C387.896 166.045 401.353 178.845 410.966 195.338C420.579 211.832 425.385 231.108 425.385 253.166C425.385 275.427 420.427 294.703 410.511 310.994C400.696 327.285 386.884 339.832 369.075 348.635C351.368 357.438 330.675 361.84 306.998 361.84H226.858V296.271H289.998C299.915 296.271 308.364 294.551 315.345 291.111C322.428 287.569 327.842 282.561 331.586 276.085C335.431 269.609 337.353 261.969 337.353 253.166C337.353 244.262 335.431 236.673 331.586 230.399C327.842 224.025 322.428 219.168 315.345 215.829C308.364 212.388 299.915 210.668 289.998 210.668H260.25V454.121H175.861Z" fill="white"/>
<path d="M594.365 454.121V143.278H728.538C751.608 143.278 771.794 147.478 789.097 155.876C806.4 164.274 819.858 176.366 829.47 192.151C839.083 207.936 843.889 226.858 843.889 248.916C843.889 271.177 838.931 289.947 829.015 305.226C819.2 320.505 805.388 332.04 787.579 339.832C769.872 347.623 749.179 351.519 725.502 351.519H645.363V285.95H708.503C718.419 285.95 726.868 284.736 733.85 282.308C740.933 279.778 746.346 275.781 750.09 270.317C753.935 264.853 755.858 257.719 755.858 248.916C755.858 240.012 753.935 232.777 750.09 227.212C746.346 221.546 740.933 217.397 733.85 214.766C726.868 212.034 718.419 210.668 708.503 210.668H678.754V454.121H594.365ZM776.5 311.449L854.21 454.121H762.536L686.647 311.449H776.5Z" fill="white"/>
<path d="M343.425 685.634C342.615 675.515 338.821 667.623 332.041 661.956C325.363 656.29 315.194 653.457 301.534 653.457C292.832 653.457 285.698 654.519 280.133 656.644C274.669 658.668 270.621 661.45 267.991 664.992C265.36 668.533 263.994 672.581 263.893 677.134C263.69 680.878 264.348 684.268 265.866 687.303C267.485 690.238 270.014 692.919 273.455 695.348C276.895 697.675 281.297 699.8 286.659 701.722C292.022 703.645 298.397 705.365 305.784 706.883L331.282 712.347C348.484 715.989 363.206 720.796 375.45 726.766C387.693 732.736 397.711 739.768 405.502 747.863C413.293 755.857 419.01 764.862 422.653 774.88C426.397 784.897 428.319 795.825 428.421 807.664C428.319 828.103 423.21 845.406 413.091 859.572C402.972 873.738 388.503 884.514 369.682 891.901C350.963 899.288 328.449 902.981 302.141 902.981C275.124 902.981 251.548 898.984 231.412 890.99C211.377 882.997 195.795 870.703 184.664 854.108C173.635 837.412 168.07 816.062 167.969 790.057H248.108C248.614 799.569 250.991 807.563 255.241 814.039C259.491 820.514 265.461 825.422 273.151 828.761C280.942 832.1 290.201 833.77 300.927 833.77C309.932 833.77 317.47 832.657 323.542 830.431C329.613 828.205 334.217 825.118 337.353 821.172C340.49 817.226 342.109 812.723 342.21 807.664C342.109 802.908 340.541 798.759 337.505 795.218C334.571 791.575 329.714 788.337 322.935 785.504C316.155 782.57 306.998 779.838 295.463 777.308L264.5 770.63C236.977 764.66 215.273 754.693 199.387 740.729C183.602 726.665 175.76 707.49 175.861 683.205C175.76 663.474 181.021 646.222 191.646 631.449C202.372 616.574 217.195 604.989 236.117 596.691C255.14 588.394 276.946 584.246 301.534 584.246C326.628 584.246 348.332 588.445 366.647 596.843C384.961 605.242 399.077 617.08 408.993 632.359C419.01 647.537 424.07 665.295 424.171 685.634H343.425Z" fill="white"/>
<path d="M574.331 899.339L574.331 814.748L863.722 814.748L863.722 899.339L574.331 899.339Z" fill="white"/>
<path d="M779.13 601.043H863.722V899.339H779.13V601.043Z" fill="white"/>
</g>
<defs>
<clipPath id="clip0_66_2">
<rect width="1024" height="1024" fill="white"/>
</clipPath>
</defs>
</svg>
